<?xml version="1.0" encoding="utf-8"?>
<!-- Generator: Adobe Illustrator 24.1.2, SVG Export Plug-In . SVG Version: 6.00 Build 0)  -->
<svg version="1.1" id="Layer_1" xmlns="http://www.w3.org/2000/svg" xmlns:xlink="http://www.w3.org/1999/xlink" x="0px" y="0px"
	 viewBox="0 0 512 512" style="enable-background:new 0 0 512 512;" xml:space="preserve">
<style type="text/css">
	.st0{fill:#6CA09F;}
</style>
<g>
	<g>
		<path class="st0" d="M437,75C388.7,26.6,324.4,0,256,0S123.3,26.6,75,75C26.6,123.3,0,187.6,0,256s26.6,132.7,75,181
			c48.3,48.3,112.6,75,181,75s132.7-26.6,181-75c48.3-48.3,75-112.6,75-181S485.4,123.3,437,75z M425.8,425.8
			c-45.4,45.4-105.7,70.3-169.8,70.3s-124.5-25-169.8-70.3C40.8,380.5,15.8,320.2,15.8,256s25-124.5,70.3-169.8
			C131.5,40.8,191.8,15.8,256,15.8s124.5,25,169.8,70.3c45.4,45.4,70.3,105.7,70.3,169.8S471.2,380.5,425.8,425.8z"/>
	</g>
</g>
<g>
	<g>
		<path class="st0" d="M256,47.5c-29.5,0-58,6-84.7,18c-25.8,11.5-48.7,27.9-68,48.7c-36,38.6-55.8,88.9-55.8,141.8
			s19.8,103.2,55.7,141.8c19.3,20.8,42.2,37.2,68,48.7c26.7,11.9,55.2,18,84.7,18c28.8,0,56.7-5.8,83-17.2
			c25.4-11,48-26.8,67.1-46.8c37.7-38.9,58.4-90.2,58.4-144.5C464.5,141,371,47.5,256,47.5z M394.7,389.6
			c-36.5,38.1-85.8,59.1-138.7,59.1c-27.3,0-53.6-5.6-78.3-16.6c-23.8-10.6-45-25.8-62.9-45.1c-33.2-35.6-51.5-82.2-51.5-131
			s18.3-95.4,51.5-131c17.9-19.3,39-34.4,62.9-45.1c24.7-11,51-16.6,78.3-16.6c106.2,0,192.7,86.4,192.7,192.7
			C448.7,306.2,429.5,353.6,394.7,389.6z"/>
	</g>
</g>
<g>
	<g>
		<rect x="248.1" y="76.5" class="st0" width="15.8" height="47.5"/>
	</g>
</g>
<g>
	<g>
		<rect x="248.1" y="388" class="st0" width="15.8" height="47.5"/>
	</g>
</g>
<g>
	<g>
		<rect x="393.2" y="248.1" class="st0" width="42.2" height="15.8"/>
	</g>
</g>
<g>
	<g>
		<rect x="76.5" y="248.1" class="st0" width="42.2" height="15.8"/>
	</g>
</g>
<g>
	<g>
		
			<rect x="132" y="128" transform="matrix(0.7071 -0.7071 0.7071 0.7071 -65.4004 142.9633)" class="st0" width="15.8" height="44.8"/>
	</g>
</g>
<g>
	<g>
		
			<rect x="344.5" y="142.5" transform="matrix(0.7071 -0.7071 0.7071 0.7071 1.0801 303.4706)" class="st0" width="44.8" height="15.8"/>
	</g>
</g>
<g>
	<g>
		
			<rect x="358.9" y="339.2" transform="matrix(0.7071 -0.7071 0.7071 0.7071 -148.2204 365.2967)" class="st0" width="15.8" height="44.8"/>
	</g>
</g>
<g>
	<g>
		
			<rect x="117.5" y="353.7" transform="matrix(0.7071 -0.7071 0.7071 0.7071 -214.6951 204.8197)" class="st0" width="44.8" height="15.8"/>
	</g>
</g>
<g>
	<g>
		<polygon class="st0" points="263.9,247.4 263.9,150.4 248.1,150.4 248.1,254 324.3,330.2 335.5,319 		"/>
	</g>
</g>
</svg>
