<?xml version="1.0" encoding="utf-8"?>
<!-- Generator: Adobe Illustrator 24.1.2, SVG Export Plug-In . SVG Version: 6.00 Build 0)  -->
<svg version="1.1" id="Layer_1" xmlns="http://www.w3.org/2000/svg" xmlns:xlink="http://www.w3.org/1999/xlink" x="0px" y="0px"
	 viewBox="0 0 512 512" style="enable-background:new 0 0 512 512;" xml:space="preserve">
<style type="text/css">
	.st0{fill:#6CA09F;}
</style>
<g>
	<path class="st0" d="M256,0C115.2,0,0,115.2,0,256s115.2,256,256,256s256-115.2,256-256S396.8,0,256,0z M256,460.8
		c-112.6,0-204.8-92.2-204.8-204.8S143.4,51.2,256,51.2S460.8,143.4,460.8,256S368.6,460.8,256,460.8z"/>
	<path class="st0" d="M256,179.2c20.5,0,41,7.7,53.8,23l35.8-35.8c-23-25.6-56.3-38.4-89.6-38.4c-71.7,0-128,56.3-128,128
		s56.3,128,128,128c33.3,0,66.6-12.8,89.6-38.4l-35.8-35.8c-15.4,15.4-33.3,23-53.8,23c-43.5,0-76.8-33.3-76.8-76.8
		S212.5,179.2,256,179.2z"/>
</g>
</svg>
