<?xml version="1.0" encoding="utf-8"?>
<!-- Generator: Adobe Illustrator 24.1.2, SVG Export Plug-In . SVG Version: 6.00 Build 0)  -->
<svg version="1.1" id="Layer_1" xmlns="http://www.w3.org/2000/svg" xmlns:xlink="http://www.w3.org/1999/xlink" x="0px" y="0px"
	 viewBox="0 0 512 512" style="enable-background:new 0 0 512 512;" xml:space="preserve">
<style type="text/css">
	.st0{fill:#6CA09F;}
</style>
<path class="st0" d="M492.2,353.3c0.2-0.3,0.3-0.6,0.4-0.9c30.3-70,24.9-155.8-14.5-221.5c21-25.1-6.3-61.2-36.2-47.2
	c-5.3-5.4-10.8-10.5-16.5-15.4c11.2-30.5-26.2-55.5-49.5-32.7c-67.7-34.2-152-33.8-219.4,1.2c-24-25.4-64.2,1.8-49.7,33.7
	c-8.3,7.3-16.2,15.1-23.4,23.4c-6.3,7.2,5.1,17,11.3,9.9c6.7-7.7,14.1-15,21.8-21.8c14.9,10.8,36.6,5.3,44.8-11.2
	c27,7.8,52.8,18.9,76.9,33.3c-2,7.3-1.2,15.4,2.3,22.1c-19.8,17.1-37.6,36.4-53.1,57.7c-14.3-4.3-30,2.9-36.3,16.4
	c-31.5,0.2-63.1,3.6-94.2,10.1c-2.7-5.1-6.9-9.3-11.9-12.2c5.8-22.7,15.1-44.4,27.5-64.4c5-8-7.6-16.3-12.7-7.9
	c-13.2,21.3-23.1,44.3-29.3,68.5c-35.9,0.6-42,50.3-7.8,59.9c-0.5,70.8,30.1,139.6,83.2,186.5c-11.1,29.9,24.9,54.6,48.6,33.5
	c69.2,36.8,156.7,36.8,225.9,0c24.1,23.9,62.8-2.8,49.2-34C456.8,415.9,478.1,386.2,492.2,353.3L492.2,353.3z M482.7,336.5
	c-20.8-20.6-43.5-39.4-67.8-55.8c3.4-10.8,0.5-22.9-7.6-30.9c20.4-33.9,36.4-70.3,47.7-108.3c3.8,0,7.4-0.7,10.7-1.9
	C500.3,197.9,506.6,273.1,482.7,336.5z M137.4,421.3c-6.3-61.9,4.8-123.6,32.2-179.3c17,5.3,35.5-5.9,38.8-23.4
	c51.7,6.4,101.6,21.6,148.3,45.2c-2.2,8.7-0.4,18.4,5,25.7c-52.7,66.8-122.3,117-201.9,145.8C154.9,427.7,146.8,422.3,137.4,421.3
	L137.4,421.3z M370.8,271.4c0-8.5,6.9-15.4,15.3-15.4c20.3,0.8,20.3,30,0,30.8C377.6,286.9,370.8,279.9,370.8,271.4z M470.4,111.1
	c0,8.5-6.9,15.4-15.3,15.4c-20.3-0.8-20.3-30,0-30.8C463.6,95.6,470.4,102.5,470.4,111.1z M430.4,93.4
	c-10.4,14.6-5.6,35.6,10.1,44.3c-10.9,36.7-26.4,71.8-46.1,104.5c-4.1-1.2-8.7-1.5-12.9-0.8c-20.6-44-50.6-83.6-87.2-115.2
	c3.5-6.7,4.3-14.8,2.3-22.1c23.2-13.8,48-24.7,73.9-32.4c8.6,16.7,31.8,21.4,46.1,8.9C421.4,84.6,426,88.9,430.4,93.4L430.4,93.4z
	 M252.1,112.2c0-8.5,6.9-15.4,15.3-15.4c20.3,0.8,20.3,30,0,30.8C258.9,127.6,252.1,120.7,252.1,112.2L252.1,112.2z M397.2,41.8
	c8.4,0,15.3,6.9,15.3,15.4c-0.8,20.5-29.8,20.5-30.6,0C381.9,48.7,388.8,41.8,397.2,41.8z M134.1,72.6c-8.4,0-15.3-6.9-15.3-15.4
	c0.8-20.5,29.8-20.5,30.6,0C149.5,65.7,142.6,72.6,134.1,72.6z M164.4,56.1c-0.1-2.1-0.4-4.1-0.8-6.1c62.8-32.5,141.3-33,204.6-1.5
	c-0.8,2.7-1.3,5.6-1.3,8.6c-27.3,8.1-53.4,19.5-77.8,34c-11.7-12.1-31.8-12.1-43.5,0C220.2,75.9,193,64.2,164.4,56.1L164.4,56.1z
	 M250.4,137.4c10.1,6.9,23.9,6.9,34,0c34.9,30.2,63.6,67.9,83.3,109.9c-1.3,1-2.6,2.2-3.7,3.4c-49.3-25-101.9-40.9-156.6-47.3
	c-1.5-4.5-4-8.5-7.2-11.8C214.9,171.7,231.7,153.5,250.4,137.4L250.4,137.4z M178.6,197.5c8.4,0,15.3,6.9,15.3,15.4
	c-0.8,20.5-29.8,20.5-30.6,0C163.3,204.4,170.2,197.5,178.6,197.5z M14.9,224.7c0-8.5,6.9-15.4,15.3-15.4c20.3,0.8,20.3,30,0,30.8
	C21.7,240.2,14.9,233.2,14.9,224.7z M37.7,254.2c0,0,22.8-5,22.8-29.3c0,0,58.5-9.3,87.9-9.7c0.6,7.3,3.7,13.8,8.4,18.8
	c-29.2,58.8-41,124-34.2,189.4c-2.9,1.2-5.6,2.9-8,4.9C65.6,384.5,37.7,311,37.7,254.2L37.7,254.2z M134.1,467
	c-8.4,0-15.3-6.9-15.3-15.4c0-8.5,6.9-15.4,15.3-15.4c8.3,0,15.3,7.2,15.3,15.4C149.5,460.1,142.6,467,134.1,467z M267.4,486.9
	c-36.4,0-72.4-8.7-104.6-25.3c1.3-3.7,1.9-8,1.6-12C246.8,419.9,318.8,368,373.3,299c4.5,2.1,9.5,3.1,14.4,2.8
	c3.3,12.4,6,25,7.8,37.6c1.4,9.7,16.3,7.5,14.8-2.2c-2-13.4-4.8-26.8-8.4-39.9c1.8-1.1,3.5-2.4,5-3.9c25,17,48.4,36.5,69.5,58.1
	c-13.1,29-32.2,55.2-56.5,76.9c-2.4-1.8-5.1-3.2-7.9-4.3c1.5-13.9,2.1-28,1.9-42c-0.2-9.8-15.2-9.6-15,0.2
	c0.2,13.4-0.4,26.9-1.8,40.3c-17.7,2.8-29.3,21.2-24.4,38.4C340.4,478,304.1,486.9,267.4,486.9L267.4,486.9z M401.9,468.3
	c-8.4,0-15.3-6.9-15.3-15.4c0.8-20.5,29.8-20.5,30.6,0C417.2,461.4,410.4,468.3,401.9,468.3z"/>
</svg>
