<?xml version="1.0" encoding="utf-8"?>
<!-- Generator: Adobe Illustrator 24.1.2, SVG Export Plug-In . SVG Version: 6.00 Build 0)  -->
<svg version="1.1" id="Capa_1" xmlns="http://www.w3.org/2000/svg" xmlns:xlink="http://www.w3.org/1999/xlink" x="0px" y="0px"
	 viewBox="0 0 512 512" style="enable-background:new 0 0 512 512;" xml:space="preserve">
<style type="text/css">
	.st0{fill:#6CA09F;}
</style>
<g>
	<g>
		<path class="st0" d="M407,0H105C47.1,0,0,47.1,0,105v302c0,57.9,47.1,105,105,105h302c57.9,0,105-47.1,105-105V105
			C512,47.1,464.9,0,407,0z M482,407c0,41.4-33.6,75-75,75H105c-41.4,0-75-33.6-75-75V105c0-41.4,33.6-75,75-75h302
			c41.4,0,75,33.6,75,75V407z"/>
	</g>
</g>
<g>
	<g>
		<path class="st0" d="M390.2,321.9l-31.6-19c-16-9.6-36.4-7.1-49.6,6.1c-5.8,5.8-15.4,5.8-21.2,0L203,224.2
			c-5.8-5.8-5.8-15.4,0-21.2c13.2-13.2,15.7-33.6,6.1-49.6l-19-31.6c-11.5-19.2-36.5-25.5-55.7-13.9l-15,9l-1.3,1.3
			c-19.6,19.6-21.7,52.7-6.1,93.3c14.1,36.6,41.4,76.3,76.8,111.8S264,385.9,300.6,400c17.9,6.9,34.4,10.3,48.8,10.3
			c18.3,0,33.5-5.5,44.4-16.4l1.3-1.3l9-15C415.7,358.4,409.4,333.4,390.2,321.9z M378.5,362.2l-6.9,11.6
			c-10.8,9.2-33.1,8.6-60.1-1.8c-32.8-12.6-68.8-37.5-101.3-70s-57.4-68.5-70-101.3c-10.4-27-11-49.3-1.8-60.1l11.6-6.9
			c5-3,11.6-1.4,14.6,3.6l19,31.6c2.5,4.2,1.9,9.5-1.6,13c-8.5,8.5-13.2,19.8-13.2,31.8c0,12,4.7,23.3,13.2,31.8l84.9,84.9
			c8.5,8.5,19.8,13.2,31.8,13.2c12,0,23.3-4.7,31.8-13.2c3.5-3.5,8.8-4.1,13-1.6l31.6,19C379.8,350.6,381.5,357.2,378.5,362.2z"/>
	</g>
</g>
</svg>
