<svg width="150" height="151" viewBox="0 0 150 151" fill="none" xmlns="http://www.w3.org/2000/svg">
<rect y="62.1285" width="25.1613" height="25.2397" rx="12.5806" fill="#6CA09F"/>
<rect x="124.839" y="62.1285" width="25.1613" height="25.2397" rx="12.5806" fill="#6CA09F"/>
<rect x="62.38" y="150" width="25" height="25" rx="12.5" transform="rotate(-89.9083 62.38 150)" fill="#6CA09F"/>
<rect x="62.5801" y="25" width="25" height="25" rx="12.5" transform="rotate(-89.9083 62.5801 25)" fill="#6CA09F"/>
<rect x="119.594" y="136.604" width="25" height="25" rx="12.5" transform="rotate(-135.371 119.594 136.604)" fill="#6CA09F"/>
<rect x="30.635" y="48.7903" width="25" height="25" rx="12.5" transform="rotate(-135.371 30.635 48.7903)" fill="#6CA09F"/>
<rect x="12.7775" y="118.719" width="25" height="25" rx="12.5" transform="rotate(-44.5427 12.7775 118.719)" fill="#6CA09F"/>
<rect x="101.868" y="31.0389" width="25" height="25" rx="12.5" transform="rotate(-44.5427 101.868 31.0389)" fill="#6CA09F"/>
<path fill-rule="evenodd" clip-rule="evenodd" d="M75.242 137.362C109.849 137.362 137.903 109.329 137.903 74.7483C137.903 40.1677 109.849 12.1345 75.242 12.1345C40.6351 12.1345 12.5807 40.1677 12.5807 74.7483C12.5807 109.329 40.6351 137.362 75.242 137.362ZM75 116.491C97.9822 116.491 116.613 97.9108 116.613 74.991C116.613 52.0713 97.9822 33.4912 75 33.4912C52.0179 33.4912 33.3871 52.0713 33.3871 74.991C33.3871 97.9108 52.0179 116.491 75 116.491Z" fill="#6CA09F"/>
</svg>
