<svg width="600" height="601" viewBox="0 0 600 601" fill="none" xmlns="http://www.w3.org/2000/svg">
<path fill-rule="evenodd" clip-rule="evenodd" d="M350.395 53.3811L350.454 16.1344C350.469 7.29791 343.317 0.123004 334.48 0.108861L266.48 2.09416e-05C257.644 -0.0141227 250.469 7.13787 250.455 15.9744L250.394 53.613C217.507 60.346 186.967 73.5156 160.15 91.7467L133.011 64.9571C126.722 58.7493 116.592 58.8149 110.384 65.1036L62.6132 113.497C56.4054 119.786 56.471 129.916 62.7597 136.124L90.2618 163.272C73.7286 188.853 61.7338 217.638 55.4156 248.488H16C7.16344 248.488 0 255.652 0 264.488V333.447C0 342.284 7.16343 349.447 16 349.447H55.4156C61.8171 380.704 74.0458 409.84 90.9178 435.673L62.5133 463.627C56.2153 469.826 56.1344 479.956 62.3327 486.254L110.031 534.72C116.229 541.018 126.359 541.099 132.657 534.9L161.146 506.863C187.508 524.6 217.427 537.464 249.609 544.16L249.545 583.974C249.531 592.811 256.683 599.986 265.52 600L333.52 600.109C342.356 600.123 349.531 592.971 349.545 584.134L349.608 544.71C382.227 538.3 412.576 525.567 439.323 507.842L466.989 535.152C473.278 541.359 483.408 541.294 489.616 535.005L537.387 486.611C543.595 480.323 543.529 470.192 537.24 463.984L510.05 437.144C527.422 410.948 539.997 381.299 546.52 349.447H584C592.837 349.447 600 342.284 600 333.447V264.488C600 255.652 592.837 248.488 584 248.488H546.52C540.132 217.297 527.941 188.218 511.124 162.426L537.487 136.482C543.785 130.283 543.866 120.153 537.667 113.855L489.969 65.3893C483.771 59.0912 473.641 59.0104 467.343 65.2087L440.951 91.182C414.024 73.0331 383.378 59.9728 350.395 53.3811ZM466.452 299.939C466.452 391.618 391.929 465.938 300 465.938C208.071 465.938 133.548 391.618 133.548 299.939C133.548 208.26 208.071 133.939 300 133.939C391.929 133.939 466.452 208.26 466.452 299.939Z" fill="#6CA09F" fill-opacity="0.2"/>
</svg>
